HIERARCHY
ROOT RootJoint
{
    OFFSET   0.000000   0.000000   0.000000
    CHANNELS 6 Xposition Yposition Zposition Xrotation Yrotation Zrotation
    JOINT pelvis_lowerback
    {
        OFFSET   0.000000   0.093605   0.000000
        CHANNELS 3 Xrotation Yrotation Zrotation
        JOINT lowerback_torso
        {
            OFFSET   0.000000   0.100000   0.000000
            CHANNELS 3 Xrotation Yrotation Zrotation
            JOINT torso_head
            {
                OFFSET   0.000000   0.282350   0.000000
                CHANNELS 3 Xrotation Yrotation Zrotation
                End Site
                {
                    OFFSET   0.000000   0.192650   0.000000
                }
            }
            JOINT rTorso_Clavicle
            {
                OFFSET  -0.001000   0.157500   0.000000
                CHANNELS 3 Xrotation Yrotation Zrotation
                JOINT rShoulder
                {
                    OFFSET  -0.117647   0.000000   0.000000
                    CHANNELS 3 Xrotation Yrotation Zrotation
                    JOINT rElbow
                    {
                        OFFSET  -0.245000   0.000000   0.000000
                        CHANNELS 3 Xrotation Yrotation Zrotation
                        JOINT rWrist
                        {
                            OFFSET  -0.240000   0.000000   0.000000
                            CHANNELS 3 Xrotation Yrotation Zrotation
                            End Site
                            {
                                OFFSET  -0.116353  -0.002500   0.000000
                            }
                        }
                    }
                }
            }
            JOINT lTorso_Clavicle
            {
                OFFSET   0.001000   0.157500   0.000000
                CHANNELS 3 Xrotation Yrotation Zrotation
                JOINT lShoulder
                {
                    OFFSET   0.117647   0.000000   0.000000
                    CHANNELS 3 Xrotation Yrotation Zrotation
                    JOINT lElbow
                    {
                        OFFSET   0.245000   0.000000   0.000000
                        CHANNELS 3 Xrotation Yrotation Zrotation
                        JOINT lWrist
                        {
                            OFFSET   0.240000   0.000000   0.000000
                            CHANNELS 3 Xrotation Yrotation Zrotation
                            End Site
                            {
                                OFFSET   0.116353  -0.002500   0.000000
                            }
                        }
                    }
                }
            }
        }
    }
    JOINT rHip
    {
        OFFSET  -0.100000  -0.051395   0.000000
        CHANNELS 3 Xrotation Yrotation Zrotation
        JOINT rKnee
        {
            OFFSET   0.000000  -0.410000   0.000000
            CHANNELS 3 Xrotation Yrotation Zrotation
            JOINT rAnkle
            {
                OFFSET   0.000000  -0.390000   0.000000
                CHANNELS 3 Xrotation Yrotation Zrotation
                JOINT rToeJoint
                {
                    OFFSET   0.000000  -0.050000   0.130000
                    CHANNELS 3 Xrotation Yrotation Zrotation
                    End Site
                    {
                        OFFSET  -0.010000   0.002000   0.060000
                    }
                }
            }
        }
    }
    JOINT lHip
    {
        OFFSET   0.100000  -0.051395   0.000000
        CHANNELS 3 Xrotation Yrotation Zrotation
        JOINT lKnee
        {
            OFFSET   0.000000  -0.410000   0.000000
            CHANNELS 3 Xrotation Yrotation Zrotation
            JOINT lAnkle
            {
                OFFSET   0.000000  -0.390000   0.000000
                CHANNELS 3 Xrotation Yrotation Zrotation
                JOINT lToeJoint
                {
                    OFFSET   0.000000  -0.050000   0.130000
                    CHANNELS 3 Xrotation Yrotation Zrotation
                    End Site
                    {
                        OFFSET   0.010000   0.002000   0.060000
                    }
                }
            }
        }
    }
}
MOTION
Frames: 11
Frame Time:   0.008333
 -2.296947   0.716294   4.030564  -9.702537  18.511959   4.465557  30.981184   1.452090  -0.456884  -1.360629   0.397861   1.783941  -8.849581  -0.351692  -0.345749   0.006986   8.586435   6.052685   3.663336  13.064127  42.582084  -0.151993  87.170441   0.141839   6.909448   2.530404 -13.959960   0.339819  -8.153996  -5.903667   8.310663 -14.150085 -44.146013 -179.962281 -81.191335 -179.955854   1.694585  -4.993244  10.487132 -31.950184  -5.048860 -10.925368  89.157876   0.001338   0.000534 -36.303373 -13.845996  -6.701740 -17.645092   0.000565  -0.000234 -36.017881  -2.549300   2.802257  82.578675  -0.000413  -0.000900 -38.528454   3.479047   6.329894  -0.653464  -0.001948  -0.000710
 -2.296832   0.717055   4.030762  -9.721041  18.576642   4.482969  30.960722   1.420466  -0.465164  -1.443157   0.329034   1.776156  -8.897468  -0.322597  -0.329570   0.090350   8.473498   6.141562   4.015237  12.945284  42.644533  -0.105797  86.559640   0.096731   6.954327   2.599758 -14.230960   0.423086  -8.062750  -5.921834   8.602879 -14.328039 -44.216589 -179.966767 -81.369718 -179.961308   1.854655  -4.990887  10.698884 -31.827929  -5.037468 -10.914731  89.005775   0.000962   0.000369 -36.218675 -13.857825  -6.660070 -17.687560   0.000460  -0.000214 -35.912569  -2.574017   2.733009  82.419420  -0.000356  -0.000689 -38.494821   3.456319   6.507255  -0.544312  -0.001698  -0.000590
 -2.296597   0.718162   4.030981  -9.708115  18.616545   4.488318  30.906072   1.387037  -0.469436  -1.519363   0.256011   1.768273  -8.941097  -0.294621  -0.312820   0.198615   8.342845   6.223991   4.369559  12.820798  42.709999  -0.075318  85.982980   0.067050   6.989692   2.638599 -14.452061   0.519046  -7.963429  -5.939013   8.890075 -14.492984 -44.289150 -179.970508 -81.531859 -179.965866   2.011618  -5.008078  10.870854 -31.700164  -5.020927 -10.900966  88.777188   0.000627   0.000237 -36.108673 -13.867060  -6.619081 -17.702137   0.000370  -0.000178 -35.787436  -2.595994   2.649292  82.191838  -0.000293  -0.000435 -38.460109   3.399348   6.668179  -0.440149  -0.001465  -0.000555
 -2.296231   0.719511   4.031178  -9.665036  18.604153   4.476823  30.831042   1.357794  -0.472105  -1.597549   0.187055   1.758858  -8.982159  -0.268000  -0.297744   0.311976   8.207438   6.295765   4.710842  12.697209  42.771728  -0.052863  85.443142   0.045251   7.019239   2.659018 -14.647078   0.616831  -7.860031  -5.951281   9.164680 -14.643100 -44.357624 -179.973556 -81.681184 -179.969633   2.162934  -5.031573  11.028771 -31.587797  -4.994768 -10.882614  88.497668   0.000403   0.000193 -35.966015 -13.874480  -6.578841 -17.703025   0.000296  -0.000142 -35.647715  -2.629491   2.537995  81.919383  -0.000143  -0.000032 -38.438180   3.287234   6.811327  -0.343753  -0.001244  -0.000636
 -2.295772   0.721017   4.031354  -9.598354  18.550658   4.445788  30.742113   1.327814  -0.471860  -1.679377   0.120115   1.752678  -9.020530  -0.243192  -0.283186   0.422823   8.072707   6.357566   5.033697  12.577551  42.828746  -0.035628  84.939479   0.028595   7.046038   2.673038 -14.832479   0.710728  -7.757281  -5.955292   9.423441 -14.780275 -44.418684 -179.976048 -81.819017 -179.972764   2.308679  -5.058190  11.182066 -31.488096  -4.959979 -10.853789  88.181925   0.000265   0.000220 -35.800894 -13.865683  -6.541617 -17.693819   0.000236  -0.000114 -35.501723  -2.669884   2.420659  81.619147   0.000058   0.000445 -38.422832   3.180043   6.947895  -0.257208  -0.001049  -0.000716
 -2.295242   0.722618   4.031513  -9.513420  18.467940   4.398449  30.643117   1.294073  -0.468669  -1.765201   0.052700   1.750334  -9.056351  -0.220295  -0.269021   0.528452   7.940744   6.410325   5.336882  12.462795  42.880878  -0.022270  84.470227   0.015772   7.071610   2.686432 -15.015520   0.797685  -7.658610  -5.951126   9.664856 -14.906775 -44.471753 -179.978130 -81.946147 -179.975411   2.449412  -5.088318  11.333307 -31.397361  -4.916631 -10.814862  87.840570   0.000182   0.000292 -35.627095 -13.837914  -6.508832 -17.668916   0.000188  -0.000091 -35.355314  -2.713984   2.303830  81.303028   0.000273   0.000935 -38.412418   3.078901   7.077320  -0.178545  -0.000881  -0.000780
 -2.294656   0.724265   4.031661  -9.415286  18.363961   4.338801  30.537223   1.255844  -0.463017  -1.854421  -0.016213   1.751069  -9.089833  -0.199211  -0.255346   0.627947   7.812626   6.454991   5.620646  12.353254  42.928240  -0.011952  84.033235   0.005959   7.096575   2.701292 -15.198632   0.876463  -7.565909  -5.940172   9.888677 -15.024387 -44.517433 -179.979920 -82.063285 -179.977696   2.585637  -5.122776  11.483059 -31.314264  -4.866799 -10.768681  87.483896   0.000135   0.000390 -35.450393 -13.796294  -6.479660 -17.630624   0.000149  -0.000074 -35.211260  -2.759240   2.190075  80.979812   0.000478   0.001396 -38.405803   2.983797   7.199438  -0.106926  -0.000736  -0.000822
 -2.293945   0.726473   4.032057  -9.379456  18.228296   4.290773  30.392427   1.224869  -0.451562  -1.849396  -0.078773   1.738802  -9.099177  -0.164629  -0.198666   0.713284   7.660994   6.483154   5.973622  12.313364  43.005929  -0.006323  83.532634   0.000524   7.104413   2.748186 -15.408877   0.950166  -7.461930  -5.939275  10.120301 -15.210145 -44.556260 -179.976644 -82.346504 -179.974733   2.740492  -5.221588  11.703334 -31.084237  -4.810419 -10.708966  87.002454   0.000076   0.000581 -35.223038 -13.735549  -6.384981 -17.599748   0.000104  -0.000061 -34.917920  -2.790375   2.089336  80.513682   0.000763   0.002112 -38.158193   2.906044   7.324655  -0.065358  -0.000609  -0.000780
 -2.293170   0.729006   4.032546  -9.315424  18.079358   4.229028  30.203970   1.189825  -0.441144  -1.851911  -0.143606   1.726510  -9.105824  -0.131500  -0.142344   0.815954   7.503487   6.508710   6.322531  12.271023  43.086419  -0.001524  83.061756  -0.004082   7.105075   2.768666 -15.559299   1.032284  -7.357431  -5.938984  10.348121 -15.380464 -44.595018 -179.973994 -82.620994 -179.972370   2.877260  -5.258132  11.889801 -30.845051  -4.757345 -10.642564  86.451441   0.000056   0.000812 -34.958905 -13.665184  -6.294493 -17.574957   0.000072  -0.000050 -34.602254  -2.816350   1.994871  79.982344   0.001051   0.002875 -37.928226   2.833932   7.441891  -0.007798  -0.000509  -0.000793
 -2.292418   0.731746   4.033074  -9.223658  17.964341   4.162111  29.990411   1.136458  -0.431957  -1.874193  -0.221202   1.718769  -9.114356  -0.101383  -0.088695   0.923217   7.341658   6.529516   6.657385  12.225043  43.164374   0.002340  82.622628  -0.007658   7.103240   2.780842 -15.694470   1.110152  -7.257522  -5.929066  10.562636 -15.538272 -44.627501 -179.972490 -82.876307 -179.971151   3.005971  -5.282775  12.059436 -30.608964  -4.728527 -10.583286  85.854730   0.000006   0.000969 -34.674299 -13.606877  -6.204341 -17.553402   0.000048  -0.000041 -34.295566  -2.811064   1.939603  79.412891   0.001077   0.003239 -37.764132   2.856198   7.557132   0.047396  -0.000428  -0.000708
 -2.291647   0.734584   4.033624  -9.111799  17.860276   4.092836  29.759737   1.078184  -0.423105  -1.913334  -0.303055   1.708798  -9.123372  -0.073369  -0.039445   1.028184   7.180390   6.539691   6.974235  12.177063  43.234754   0.005487  82.213950  -0.010424   7.101237   2.792352 -15.827615   1.181350  -7.162233  -5.911411  10.761987 -15.685141 -44.654802 -179.971991 -83.111707 -179.970933   3.130981  -5.314070  12.224478 -30.380466  -4.705077 -10.528845  85.234638  -0.000054   0.001090 -34.379848 -13.553596  -6.118654 -17.531132   0.000029  -0.000034 -33.998492  -2.797083   1.887192  78.816937   0.001035   0.003505 -37.582862   2.848599   7.661736   0.092657  -0.000354  -0.000631
